<svg width="20" height="20" viewBox="0 0 20 20" fill="none" xmlns="http://www.w3.org/2000/svg">
<g filter="url(#filter0_d_39_978)">
<path fill-rule="evenodd" clip-rule="evenodd" d="M4.73268 0.0316755C4.36052 0.122173 4.07962 0.429287 4.01286 0.81862C3.97768 1.02379 4.01851 1.86718 4.08876 2.387C4.37768 4.52404 5.20136 6.39153 6.59886 8.07803C6.84922 8.3802 7.61962 9.15066 7.92176 9.40104C9.60813 10.7986 11.4755 11.6224 13.6124 11.9113C14.136 11.9821 14.9753 12.0224 15.1833 11.9868C15.5808 11.9186 15.8916 11.6237 15.9736 11.2369C15.9912 11.1543 16 10.7175 16 9.93444C16 8.67887 15.9951 8.61478 15.8812 8.39157C15.8167 8.26515 15.6622 8.09989 15.5433 8.03024C15.3645 7.92541 15.2503 7.89983 14.8627 7.87769C14.134 7.83609 13.6673 7.76142 13.0812 7.59267C12.7824 7.50663 12.7348 7.49917 12.5394 7.5077C12.3506 7.51598 12.3069 7.52665 12.1701 7.59823C12.0848 7.64285 11.6985 7.91946 11.3116 8.21288C10.9248 8.50632 10.6007 8.74639 10.5914 8.74639C10.5605 8.74639 10.1062 8.48169 9.83287 8.30441C8.81872 7.64656 8.04661 6.81841 7.41681 5.713C7.27429 5.46285 7.24959 5.40448 7.27147 5.36944C7.28596 5.34623 7.53239 5.01752 7.81908 4.63895C8.10577 4.2604 8.36451 3.90807 8.39405 3.85601C8.4236 3.80395 8.46496 3.6942 8.486 3.6121C8.53428 3.42369 8.52019 3.30018 8.40299 2.88364C8.24039 2.30579 8.16017 1.79688 8.13316 1.17172C8.11752 0.809755 8.08112 0.63392 7.98948 0.477549C7.85861 0.254202 7.59931 0.07044 7.34777 0.0227172C7.1622 -0.0124827 4.88212 -0.0046735 4.73268 0.0316755Z" fill="#2B90F7"/>
</g>
<defs>
<filter id="filter0_d_39_978" x="0" y="0" width="20" height="20" filterUnits="userSpaceOnUse" color-interpolation-filters="sRGB">
<feFlood flood-opacity="0" result="BackgroundImageFix"/>
<feColorMatrix in="SourceAlpha" type="matrix" values="0 0 0 0 0 0 0 0 0 0 0 0 0 0 0 0 0 0 127 0" result="hardAlpha"/>
<feOffset dy="4"/>
<feGaussianBlur stdDeviation="2"/>
<feComposite in2="hardAlpha" operator="out"/>
<feColorMatrix type="matrix" values="0 0 0 0 0 0 0 0 0 0 0 0 0 0 0 0 0 0 0.25 0"/>
<feBlend mode="normal" in2="BackgroundImageFix" result="effect1_dropShadow_39_978"/>
<feBlend mode="normal" in="SourceGraphic" in2="effect1_dropShadow_39_978" result="shape"/>
</filter>
</defs>
</svg>
