<svg width="187" height="38" viewBox="0 0 187 38" fill="none" xmlns="http://www.w3.org/2000/svg">
<path d="M29.4136 2.375H19.5938L25.8422 10.7068L29.4136 2.375ZM8.58637 2.375L12.1578 10.7068L18.4062 2.375H8.58637ZM19 5.54191L14.25 11.875H23.75L19 5.54191ZM31.3908 3.78961L27.9255 11.875H36.2188L31.3908 3.78961ZM6.60918 3.78961L1.70703 11.875H10.0745L6.60918 3.78961ZM10.8864 14.25H1.78125L18.3172 35.625H18.3565L10.8864 14.25ZM27.1136 14.25L19.6435 35.625H19.6828L36.2188 14.25H27.1136ZM24.4469 14.25H13.5531L19 29.6875L24.4469 14.25Z" fill="#2B90F7"/>
<rect x="49.4717" y="2.15094" width="0.716981" height="33.6981" fill="white"/>
<path d="M61.9758 27H66.2347L67.9698 22.1102L79.9577 20.0596L82.3238 27H86.5826L79.0113 4.91698H69.5472L61.9758 27ZM69.2317 18.1668L72.5441 8.70264H76.0143L78.6958 16.5894L69.2317 18.1668ZM88.1538 27H97.3025L92.5704 8.70264H104.874V27H108.975V4.91698H87.5229L92.255 23.2143H88.1538V27ZM112.753 27H125.688C130.735 27 133.259 23.3721 133.259 19.2709C133.259 15.1698 130.42 12.2675 125.688 11.8574L116.854 11.0687V4.91698H112.753V27ZM116.854 23.2143V14.8543L125.53 15.643C127.265 15.8008 129.158 16.5894 129.158 19.4287C129.158 22.2679 127.423 23.2143 125.53 23.2143H116.854ZM150.617 28.2619V24.634C157.242 24.4762 161.974 19.7442 161.974 14.6966V4.91698H150.617V2.55094H146.832V4.91698H135.475V14.6966C135.475 19.7442 140.207 24.4762 146.832 24.634V28.2619H150.617ZM146.832 20.8483C142.73 20.6906 139.418 18.1668 139.418 14.6966V8.54491H146.832V20.8483ZM150.617 8.54491H158.031V14.6966C158.031 18.1668 154.718 20.6906 150.617 20.8483V8.54491ZM161.67 27H165.929L167.664 22.1102L179.652 20.0596L182.018 27H186.277L178.705 4.91698H169.241L161.67 27ZM168.926 18.1668L172.238 8.70264H175.708L178.39 16.5894L168.926 18.1668Z" fill="white"/>
</svg>
