<svg width="12" height="10" viewBox="0 0 12 10" fill="none" xmlns="http://www.w3.org/2000/svg">
<path d="M10.8 0.200195H1.2C0.54 0.200195 0 0.740195 0 1.4002V8.6002C0 9.2602 0.54 9.8002 1.2 9.8002H10.8C11.46 9.8002 12 9.2602 12 8.6002V1.4002C12 0.740195 11.46 0.200195 10.8 0.200195ZM10.56 2.7502L6.636 5.2042C6.246 5.4502 5.754 5.4502 5.364 5.2042L1.44 2.7502C1.37984 2.71642 1.32715 2.67079 1.28513 2.61607C1.24312 2.56134 1.21264 2.49866 1.19555 2.43182C1.17845 2.36497 1.1751 2.29536 1.18569 2.22718C1.19629 2.159 1.2206 2.09368 1.25717 2.03518C1.29374 1.97667 1.34179 1.92619 1.39844 1.88679C1.45508 1.8474 1.51912 1.8199 1.5867 1.80597C1.65427 1.79205 1.72397 1.79198 1.79157 1.80576C1.85918 1.81955 1.92328 1.84692 1.98 1.8862L6 4.4002L10.02 1.8862C10.0767 1.84692 10.1408 1.81955 10.2084 1.80576C10.276 1.79198 10.3457 1.79205 10.4133 1.80597C10.4809 1.8199 10.5449 1.8474 10.6016 1.88679C10.6582 1.92619 10.7063 1.97667 10.7428 2.03518C10.7794 2.09368 10.8037 2.159 10.8143 2.22718C10.8249 2.29536 10.8215 2.36497 10.8045 2.43182C10.7874 2.49866 10.7569 2.56134 10.7149 2.61607C10.6728 2.67079 10.6202 2.71642 10.56 2.7502Z" fill="#2B90F7"/>
</svg>
