<svg width="211" height="100" viewBox="0 0 211 100" fill="none" xmlns="http://www.w3.org/2000/svg">
<path d="M66.9644 77.0302L65.6057 77.6658L66.9644 77.0302ZM109.134 8.31825L110.148 7.21311L109.134 8.31825ZM0.910891 38.2635C0.34125 38.865 0.367075 39.8144 0.968573 40.3841L10.7706 49.6669C11.3721 50.2366 12.3215 50.2107 12.8911 49.6092C13.4607 49.0077 13.4349 48.0583 12.8334 47.4887L4.12054 39.2373L12.372 30.5244C12.9416 29.9229 12.9158 28.9735 12.3143 28.4039C11.7128 27.8342 10.7634 27.8601 10.1937 28.4616L0.910891 38.2635ZM2.04079 40.7944C3.00823 40.7681 3.97735 40.7404 4.94776 40.7113L4.85791 37.7127C3.89029 37.7417 2.92393 37.7693 1.95921 37.7955L2.04079 40.7944ZM10.7715 40.5202C12.7113 40.4509 14.6533 40.3758 16.5946 40.2946L16.4692 37.2972C14.5342 37.3781 12.5983 37.453 10.6644 37.5221L10.7715 40.5202ZM22.4167 40.0323C24.3617 39.9382 26.303 39.8377 28.2376 39.7306L28.0717 36.7352C26.1444 36.8419 24.2101 36.942 22.2718 37.0358L22.4167 40.0323ZM34.0571 39.3863C36.0074 39.2634 37.9477 39.1332 39.8748 38.9956L39.6611 36.0032C37.7427 36.1402 35.8107 36.2698 33.8684 36.3923L34.0571 39.3863ZM45.6901 38.5537C47.646 38.3959 49.5846 38.2297 51.5024 38.055L51.2301 35.0674C49.3232 35.2411 47.3949 35.4064 45.4488 35.5635L45.6901 38.5537ZM57.3102 37.4922C59.2719 37.2903 61.207 37.0785 63.1115 36.8566L62.7642 33.8767C60.8739 34.097 58.9522 34.3073 57.003 34.508L57.3102 37.4922ZM68.9025 36.1368C70.8692 35.8763 72.7963 35.6035 74.6789 35.3182L74.2293 32.352C72.3665 32.6344 70.458 32.9045 68.5085 33.1628L68.9025 36.1368ZM80.4713 34.3743C82.4563 34.0265 84.3805 33.6623 86.2369 33.281L85.6334 30.3423C83.8081 30.7172 81.9126 31.076 79.9535 31.4193L80.4713 34.3743ZM91.9473 31.9993C93.958 31.5053 95.8668 30.9858 97.6617 30.4394L96.788 27.5694C95.0524 28.0978 93.1969 28.6031 91.2315 29.086L91.9473 31.9993ZM103.264 28.4938C105.302 27.6799 107.131 26.8083 108.713 25.8718L107.184 23.2902C105.767 24.1294 104.084 24.936 102.151 25.7077L103.264 28.4938ZM113.587 21.8385C115.119 19.8884 115.812 17.6581 115.365 15.2207L112.414 15.7619C112.683 17.2293 112.312 18.6058 111.228 19.9851L113.587 21.8385ZM112.308 9.42839C111.68 8.69649 110.961 7.95837 110.148 7.21311L108.12 9.4234C108.857 10.0996 109.491 10.7522 110.03 11.381L112.308 9.42839ZM110.148 7.21311C109.332 6.46343 108.492 5.77838 107.632 5.15699L105.875 7.58851C106.638 8.13987 107.387 8.75078 108.12 9.4234L110.148 7.21311ZM101.895 2.04453C99.8144 1.25335 97.6767 0.774223 95.519 0.588622L95.2619 3.57759C97.1471 3.73975 99.0121 4.15785 100.828 4.84859L101.895 2.04453ZM89.0057 0.896495C86.9075 1.2693 84.8307 1.89988 82.807 2.7669L83.9884 5.52447C85.8134 4.74261 87.6704 4.18074 89.5305 3.85023L89.0057 0.896495ZM77.1822 5.87897C75.4625 7.05868 73.809 8.41795 72.2443 9.94259L74.3379 12.0912C75.7846 10.6816 77.306 9.43206 78.8792 8.35282L77.1822 5.87897ZM68.0405 14.7287C66.794 16.3837 65.637 18.1645 64.5863 20.0616L67.2106 21.5152C68.1947 19.7384 69.2758 18.0751 70.4368 16.5336L68.0405 14.7287ZM61.8837 25.7993C61.1275 27.715 60.472 29.719 59.9296 31.8043L62.833 32.5595C63.345 30.591 63.9629 28.7026 64.6742 26.9008L61.8837 25.7993ZM58.696 37.9984C58.4095 40.0331 58.2269 42.1293 58.1577 44.2817L61.1561 44.3782C61.222 42.3326 61.3953 40.3438 61.6667 38.4166L58.696 37.9984ZM58.2758 50.5717C58.4158 52.611 58.6559 54.6918 59.0029 56.8102L61.9635 56.3252C61.6315 54.2983 61.4023 52.3107 61.2687 50.3661L58.2758 50.5717ZM60.2932 62.9689C60.7951 64.9384 61.389 66.935 62.0799 68.9561L64.9186 67.9856C64.2531 66.039 63.6821 64.1189 63.2003 62.2281L60.2932 62.9689ZM64.3189 74.7868C64.7259 75.742 65.1547 76.7017 65.6057 77.6658L68.3231 76.3946C67.8866 75.4616 67.472 74.5336 67.0787 73.6107L64.3189 74.7868ZM65.6057 77.6658C66.0579 78.6323 66.5435 79.5631 67.0615 80.459L69.6586 78.9574C69.1847 78.1377 68.7391 77.2838 68.3231 76.3946L65.6057 77.6658ZM70.6747 85.5675C72.0513 87.1726 73.5602 88.621 75.188 89.9214L77.0604 87.5775C75.5758 86.3915 74.2031 85.0734 72.9519 83.6145L70.6747 85.5675ZM80.3943 93.376C82.1883 94.3587 84.0788 95.2092 86.0532 95.9372L87.0911 93.1224C85.245 92.4417 83.4903 91.6513 81.8355 90.7449L80.3943 93.376ZM91.9824 97.709C93.9338 98.1693 95.9475 98.5345 98.0145 98.8118L98.4135 95.8385C96.4357 95.5731 94.5191 95.225 92.671 94.7891L91.9824 97.709ZM104.111 99.3743C106.109 99.4808 108.148 99.5182 110.22 99.4919L110.182 96.4921C108.171 96.5177 106.198 96.4813 104.27 96.3785L104.111 99.3743ZM116.291 99.2429C118.282 99.108 120.297 98.9218 122.331 98.6883L121.989 95.7079C119.998 95.9364 118.03 96.1182 116.088 96.2498L116.291 99.2429ZM128.336 97.874C130.312 97.5665 132.302 97.2194 134.301 96.8363L133.736 93.8899C131.77 94.2668 129.815 94.6078 127.875 94.9097L128.336 97.874ZM140.223 95.604C142.179 95.1657 144.14 94.6967 146.101 94.2001L145.365 91.2919C143.429 91.782 141.495 92.2446 139.567 92.6765L140.223 95.604ZM151.936 92.6429C153.872 92.1006 155.805 91.5344 157.729 90.9473L156.854 88.0779C154.95 88.6585 153.04 89.2182 151.127 89.7541L151.936 92.6429ZM163.479 89.1254C165.396 88.4959 167.3 87.8485 169.189 87.1862L168.196 84.3553C166.326 85.0111 164.44 85.6521 162.543 86.2752L163.479 89.1254ZM174.861 85.1362C176.761 84.4291 178.641 83.7096 180.494 82.9813L179.397 80.1891C177.56 80.9109 175.698 81.6239 173.815 82.3245L174.861 85.1362ZM186.088 80.7257C187.974 79.9459 189.826 79.1601 191.64 78.3722L190.445 75.6205C188.647 76.4015 186.811 77.1804 184.942 77.9534L186.088 80.7257ZM197.146 75.9225C199.015 75.0706 200.833 74.2209 202.594 73.3784L201.299 70.6723C199.555 71.5067 197.754 72.3485 195.901 73.1927L197.146 75.9225ZM208.027 70.7112C208.935 70.2536 209.823 69.7998 210.69 69.3508L209.31 66.6869C208.453 67.1307 207.575 67.5794 206.677 68.0321L208.027 70.7112Z" fill="#2B90F7"/>
</svg>
